{"title":"12 Rounds 2009 DVDrip English Klam","uid":6196244,"size":1788431084,"categoryP":"video","categoryS":"movies","magnet":"?xt=urn:btih:1d826ca7e2f5a5d08d437a4ceabc80d4b2e3ad60&amp;dn=12+Rounds+2009+DVDrip+English+Klam&amp;tr=udp%3A%2F%2Ftracker.openbittorrent.com%3A80&amp;tr=udp%3A%2F%2Fopen.demonii.com%3A1337&amp;tr=udp%3A%2F%2Ftracker.coppersurfer.tk%3A6969&amp;tr=udp%3A%2F%2Fexodus.desync.com%3A6969","seeders":0,"leechers":1,"uploader":"Klambake","files":-1,"time":1298462272,"description":"With: John Cena, Aidan Gillen and Ashley Scott\n\nDetective Danny Fisher discovers his girlfriend has been kidnapped by a ex-con tied to Fisher's past, and he'll have to successfully complete 12 challenges in order to secure her safe release. \n\nGeneral:&quot;\n\nComplete name                    : 12 Rounds\\12 Rounds.avi\nFormat                           : AVI\nFormat/Info                      : Audio Video Interleave\nFile size                        : 1.66 GiB\nDuration                         : 1h 45mn\nOverall bit rate                 : 2 265 Kbps\n\nVideo:\n\nFormat                           : MPEG-4 Visual\nFormat profile                   : Simple@L3\nFormat settings, BVOP            : No\nFormat settings, QPel            : No\nFormat settings, GMC             : No warppoints\nFormat settings, Matrix          : Default (H.263)\nCodec ID                         : XVID\nCodec ID/Hint                    : XviD\nDuration                         : 1h 45mn\nBit rate                         : 1 806 Kbps\nWidth                            : 704 pixels\nHeight                           : 396 pixels\nDisplay aspect ratio             : 16:9\nFrame rate                       : 25.000 fps\nColor space                      : YUV\nChroma subsampling               : 4:2:0\nBit depth                        : 8 bits\nScan type                        : Progressive\nBits/(Pixel*Frame)               : 0.259\nStream size                      : 1.33 GiB (80%)\nWriting library                  : XviD 1.1.2 (UTC 2006-11-01)\n\nAudio:\n\nFormat                           : AC-3\nFormat/Info                      : Audio Coding 3\nMode extension                   : CM (complete main)\nCodec ID                         : 2000\nDuration                         : 1h 45mn\nBit rate mode                    : Constant\nBit rate                         : 448 Kbps\nChannel(s)                       : 6 channels\nChannel positions                : Front: L C R, Side: L R, LFE\nSampling rate                    : 48.0 KHz\nBit depth                        : 16 bits\nStream size                      : 337 MiB (20%)\nAlignment                        : Aligned on interleaves\nInterleave, duration             : 32 ms (0.80 video frame)\nInterleave, preload duration     : 544 ms\n","torrent":{"xt":"urn:btih:1d826ca7e2f5a5d08d437a4ceabc80d4b2e3ad60","amp;dn":"12+Rounds+2009+DVDrip+English+Klam","amp;tr":["udp%3A%2F%2Ftracker.openbittorrent.com%3A80","udp%3A%2F%2Fopen.demonii.com%3A1337","udp%3A%2F%2Ftracker.coppersurfer.tk%3A6969","udp%3A%2F%2Fexodus.desync.com%3A6969"],"infoHash":"1d826ca7e2f5a5d08d437a4ceabc80d4b2e3ad60","infoHashBuffer":{"type":"Buffer","data":[29,130,108,167,226,245,165,208,141,67,122,76,234,188,128,212,178,227,173,96]},"announce":[],"urlList":[]}}